<svg width="404" height="86" viewBox="0 0 404 86" fill="none" xmlns="http://www.w3.org/2000/svg">
<rect y="7.62939e-06" width="404" height="85.8802" rx="13" fill="url(#paint0_linear_78_234)" fill-opacity="0.13"/>
<rect x="1.00326" y="1.00327" width="401.993" height="83.8737" rx="11.9967" stroke="#C4C4C4" stroke-opacity="0.12" stroke-width="2.00653"/>
<g clip-path="url(#clip0_78_234)">
<rect x="9.52698" y="8.46708" width="68.9461" height="68.9461" rx="6.36426" fill="url(#paint1_linear_78_234)"/>
<path opacity="0.15" d="M99.5738 -15.575C100.968 79.5722 23.7969 84.3761 2.10205 83.9112C23.6419 85.7708 99.5738 98.3228 99.4188 182.778H99.5738C99.5738 97.0831 185.888 85.1509 200.455 83.7562C199.06 83.9112 197.046 83.9112 194.721 83.9112C170.547 83.9112 99.1089 76.1631 99.5738 -15.575ZM120.184 103.592C116.93 100.957 96.6295 86.2356 78.3439 103.901C96.4745 86.5456 83.3027 68.8798 79.4286 64.3859C83.6126 68.7248 100.504 83.1364 120.649 63.3011C112.746 70.7394 110.111 77.8676 110.111 83.9112C110.111 94.2937 118.169 101.887 120.184 103.592Z" fill="white" fill-opacity="0.25"/>
<path opacity="0.15" d="M96.3917 -18.2268C97.7863 76.9205 20.6147 81.7243 -1.08008 81.2594C20.4598 83.119 96.3917 95.671 96.2367 180.126H96.3917C96.3917 94.4313 182.706 82.4991 197.273 81.1044C195.878 81.2594 193.863 81.2594 191.539 81.2594C167.365 81.2594 95.9268 73.5113 96.3917 -18.2268ZM117.002 100.94C113.748 98.3053 93.4474 83.5839 75.1617 101.25C93.2924 83.8938 80.1205 66.228 76.2465 61.7341C80.4305 66.073 97.3214 80.4846 117.467 60.6493C109.564 68.0876 106.929 75.2158 106.929 81.2594C106.929 91.6419 114.987 99.2351 117.002 100.94Z" fill="white" fill-opacity="0.25"/>
<path opacity="0.15" d="M93.2095 -20.3482C94.6042 74.7991 17.4326 79.6029 -4.26221 79.138C17.2777 80.9976 93.2095 93.5496 93.0546 178.004H93.2095C93.2095 92.3099 179.524 80.3777 194.09 78.983C192.696 79.138 190.681 79.138 188.357 79.138C164.183 79.138 92.7446 71.3899 93.2095 -20.3482ZM113.82 98.8183C110.565 96.1839 90.2652 81.4625 71.9796 99.1282C90.1103 81.7724 76.9384 64.1066 73.0643 59.6127C77.2483 63.9516 94.1393 78.3632 114.284 58.5279C106.381 65.9662 103.747 73.0945 103.747 79.138C103.747 89.5205 111.805 97.1137 113.82 98.8183Z" fill="white" fill-opacity="0.25"/>
<path opacity="0.15" d="M90.0274 -23C91.4221 72.1473 14.2505 76.9511 -7.44434 76.4862C14.0955 78.3458 90.0274 90.8978 89.8724 175.353H90.0274C90.0274 89.6581 176.342 77.726 190.908 76.3313C189.514 76.4862 187.499 76.4862 185.175 76.4862C161 76.4862 89.5625 68.7381 90.0274 -23ZM110.637 96.1666C107.383 93.5322 87.0831 78.8107 68.7975 96.4765C86.9281 79.1206 73.7563 61.4548 69.8822 56.9609C74.0662 61.2999 90.9572 75.7114 111.102 55.8762C103.199 63.3144 100.565 70.4427 100.565 76.4862C100.565 86.8688 108.623 94.462 110.637 96.1666Z" fill="white" fill-opacity="0.25"/>
<g filter="url(#filter0_di_78_234)">
<path d="M16.4216 50.3651V36.6643C16.4216 32.9679 21.6101 32.9679 23.4631 33.5223C27.5115 35.0539 28.5451 39.9771 28.7822 43.8666C29.1773 39.5964 31.3002 36.6461 32.543 35.5553C35.491 32.9679 40.4493 33.0295 43.2906 32.9679C40.3258 32.9679 35.5079 31.9158 33.6548 30.5652C29.3877 27.4551 28.803 22.7018 28.8109 19.5156C28.5897 24.3701 27.0111 27.7358 26.0936 28.8226C23.0693 32.7987 18.3452 32.1479 16.7395 31.6112C16.5416 31.545 16.4216 31.3551 16.4216 31.1465V14.8313C16.4216 14.5384 16.659 14.301 16.9519 14.301H32.543C45.4402 14.7445 49.4057 25.9447 49.7763 31.4893C50.6657 44.7964 41.067 50.8955 34.5813 50.8955H16.9519C16.659 50.8955 16.4216 50.658 16.4216 50.3651Z" fill="url(#paint2_linear_78_234)" shape-rendering="crispEdges"/>
<path d="M16.4216 36.6643V50.3651C16.4216 50.658 16.659 50.8955 16.9519 50.8955H34.5813C41.067 50.8955 50.6657 44.7964 49.7763 31.4893C49.4057 25.9447 45.4402 14.7445 32.543 14.301H16.9519C16.659 14.301 16.4216 14.5384 16.4216 14.8313V31.1465C16.4216 31.3551 16.5416 31.545 16.7395 31.6112C18.3452 32.1479 23.0693 32.7987 26.0936 28.8226C27.0819 27.6521 28.8369 23.8377 28.8369 18.367C28.7134 21.4474 28.8369 27.0536 33.6548 30.5652C35.5079 31.9158 40.3258 32.9679 43.2906 32.9679C40.4493 33.0295 35.491 32.9679 32.543 35.5553C30.9988 36.9107 28.0957 41.1369 28.8369 47.199C28.8987 43.5642 28.8369 35.5553 23.4631 33.5223C21.6101 32.9679 16.4216 32.9679 16.4216 36.6643Z" stroke="white" stroke-opacity="0.21" stroke-width="0.530355" shape-rendering="crispEdges"/>
</g>
<path d="M68.2989 69.9882V61.3328H70.7937V63.3694H70.8446V69.9882H68.2989ZM70.8446 65.4738L70.624 63.4203C70.8276 62.6849 71.1614 62.1248 71.6253 61.7401C72.0892 61.3555 72.6662 61.1631 73.3564 61.1631C73.5713 61.1631 73.7297 61.1857 73.8315 61.231V63.607C73.775 63.5844 73.6958 63.573 73.594 63.573C73.4921 63.5617 73.3677 63.5561 73.2206 63.5561C72.406 63.5561 71.8063 63.7032 71.4216 63.9973C71.0369 64.2802 70.8446 64.7723 70.8446 65.4738Z" fill="white" fill-opacity="0.86"/>
<path d="M74.0967 63.999L73.7335 63.8535C73.7223 63.8491 73.6815 63.8379 73.5938 63.8379H73.5792L73.5645 63.8369C73.4756 63.8271 73.3617 63.8213 73.2208 63.8213C72.4284 63.8213 71.8993 63.9663 71.5831 64.208L71.5792 64.211C71.2901 64.4235 71.1095 64.8151 71.1094 65.4737V70.253H68.0333V61.0674H71.0587V61.9414C71.1791 61.7922 71.3109 61.6565 71.4561 61.5362C71.9744 61.1064 72.614 60.8975 73.3565 60.8975C73.5804 60.8975 73.7851 60.9197 73.9395 60.9883L74.0967 61.0586V63.999Z" stroke="#323232" stroke-opacity="0.18" stroke-width="0.530355"/>
<path d="M64.2337 69.9882V61.3328H66.7794V69.9882H64.2337ZM64.1489 60.1788V57.4294H66.8643V60.1788H64.1489Z" fill="white" fill-opacity="0.86"/>
<path d="M67.0444 61.0681V70.2536H63.9682V61.0681H67.0444ZM67.1293 57.1638V60.4441H63.8832V57.1638H67.1293Z" stroke="#323232" stroke-opacity="0.18" stroke-width="0.530355"/>
<path d="M61.7896 70.1749C60.6808 70.1749 59.8549 69.909 59.3118 69.3772C58.78 68.8342 58.5141 68.0139 58.5141 66.9164V59.3981L61.0598 58.4477V67.0013C61.0598 67.3859 61.1673 67.6745 61.3823 67.8668C61.5973 68.0591 61.931 68.1553 62.3836 68.1553C62.5533 68.1553 62.7117 68.1383 62.8588 68.1044C63.0059 68.0705 63.153 68.0309 63.3001 67.9856V69.9203C63.153 69.9995 62.9437 70.0618 62.6721 70.107C62.4119 70.1523 62.1177 70.1749 61.7896 70.1749ZM56.9019 63.2676V61.3328H63.3001V63.2676H56.9019Z" fill="white" fill-opacity="0.86"/>
<path d="M61.3247 61.0678H63.5649V63.5327H61.3247V67.0014C61.3247 67.337 61.4175 67.5427 61.5591 67.6694C61.7043 67.7992 61.9608 67.89 62.3833 67.8901C62.5354 67.8901 62.674 67.8751 62.7993 67.8461C62.9401 67.8137 63.0811 67.7753 63.2222 67.7319L63.5649 67.6264V70.0786L63.4253 70.1538C63.2415 70.2526 63 70.3203 62.7163 70.3676L62.7173 70.3686C62.4391 70.417 62.1293 70.4399 61.7896 70.4399C60.6432 70.4399 59.7379 70.1654 59.1265 69.5668L59.1226 69.5629C58.5243 68.952 58.2485 68.0525 58.2485 66.9165V63.5327H56.6362V61.0678H58.2485V59.2143L58.4214 59.1498L60.9673 58.1997L61.3247 58.0659V61.0678Z" stroke="#323232" stroke-opacity="0.18" stroke-width="0.530355"/>
<path d="M46.1351 69.9882L43.4876 61.3328H46.1691L47.4928 67.3746H47.425L49.0882 61.3328H51.4641L53.1443 67.3746H53.0764L54.3832 61.3328H56.9968L54.3493 69.9882H51.9054L50.2083 63.9634H50.2761L48.579 69.9882H46.1351Z" fill="white" fill-opacity="0.86"/>
<path d="M46.3821 61.0672L46.428 61.2762L47.4915 66.1307L48.8323 61.2625L48.886 61.0672H51.6653L51.72 61.2615L53.0735 66.1316L54.1243 61.2772L54.1693 61.0672H57.3548L57.2503 61.41L54.6028 70.0662L54.5452 70.2537H51.7044L51.6497 70.0604L50.2415 65.0613L48.8343 70.0604L48.7796 70.2537H45.9388L45.8812 70.0662L43.2337 61.41L43.1292 61.0672H46.3821Z" stroke="#323232" stroke-opacity="0.18" stroke-width="0.530355"/>
<path d="M41.1445 69.9882C41.0766 69.7393 41.0257 69.4734 40.9917 69.1906C40.9691 68.9077 40.9578 68.5796 40.9578 68.2062H40.8899V64.1161C40.8899 63.7654 40.7711 63.4938 40.5335 63.3015C40.3072 63.0978 39.9678 62.996 39.5152 62.996C39.0853 62.996 38.7402 63.0696 38.48 63.2166C38.2311 63.3637 38.067 63.5787 37.9878 63.8616H35.5609C35.674 63.0809 36.0757 62.436 36.7659 61.9268C37.456 61.4177 38.4008 61.1631 39.6001 61.1631C40.8447 61.1631 41.795 61.4403 42.4513 61.9947C43.1075 62.5491 43.4356 63.3468 43.4356 64.3877V68.2062C43.4356 68.4891 43.4526 68.7776 43.4865 69.0718C43.5318 69.3546 43.5997 69.6601 43.6902 69.9882H41.1445ZM38.1236 70.1579C37.2637 70.1579 36.5792 69.943 36.07 69.513C35.5609 69.0718 35.3063 68.4891 35.3063 67.765C35.3063 66.9617 35.6062 66.3167 36.2058 65.8302C36.8168 65.3324 37.6654 65.0099 38.7515 64.8629L41.2803 64.5065V65.983L39.1758 66.3054C38.7232 66.3733 38.3895 66.4978 38.1745 66.6788C37.9595 66.8598 37.852 67.1087 37.852 67.4255C37.852 67.7084 37.9539 67.9234 38.1575 68.0704C38.3612 68.2175 38.6327 68.2911 38.9721 68.2911C39.5039 68.2911 39.9565 68.1496 40.3299 67.8668C40.7032 67.5726 40.8899 67.2332 40.8899 66.8485L41.1275 68.2062C40.8786 68.8511 40.4996 69.3376 39.9904 69.6658C39.4813 69.9939 38.859 70.1579 38.1236 70.1579Z" fill="white" fill-opacity="0.86"/>
<path d="M39.6003 60.8975C40.8799 60.8975 41.9012 61.1825 42.6227 61.792C43.3511 62.4074 43.7009 63.2869 43.7009 64.3877V68.2061C43.7009 68.4748 43.7167 68.7496 43.7487 69.0303L43.8298 69.4551C43.8627 69.6032 43.9017 69.7576 43.946 69.918L44.0388 70.253H40.9421L40.8884 70.0576C40.8279 69.8357 40.7813 69.6021 40.7468 69.3574C40.5669 69.5618 40.3643 69.7405 40.1345 69.8887C39.5741 70.2498 38.899 70.4229 38.1237 70.4229C37.2199 70.4229 36.4686 70.1966 35.8991 69.7158L35.8962 69.7139C35.3242 69.2182 35.0407 68.5592 35.0407 67.7647C35.0408 66.9404 35.3337 66.2543 35.9177 65.7276L36.0388 65.624C36.6995 65.0859 37.5995 64.7508 38.7155 64.5996L40.6247 64.3311V64.1162C40.6247 63.8324 40.5325 63.642 40.3669 63.5078L40.3561 63.499C40.1976 63.3563 39.9335 63.2608 39.5153 63.2608C39.1149 63.2608 38.8205 63.3289 38.614 63.4444C38.4253 63.556 38.3039 63.7148 38.2429 63.9326L38.1891 64.127H35.2546L35.2985 63.8233C35.4228 62.9663 35.8667 62.2609 36.6081 61.7139C37.3588 61.1601 38.3663 60.8975 39.6003 60.8975ZM39.2155 66.5674C38.784 66.6321 38.5062 66.7465 38.3454 66.8819C38.1983 67.0057 38.1169 67.1761 38.1169 67.4258C38.1169 67.6357 38.1881 67.7651 38.3132 67.8555C38.4582 67.9601 38.6696 68.0254 38.9724 68.0254C39.4544 68.0254 39.8485 67.8986 40.1696 67.6553C40.4525 67.4313 40.5892 67.1986 40.6188 66.9541L40.6247 66.8487V66.3516L39.2155 66.5674Z" stroke="#323232" stroke-opacity="0.18" stroke-width="0.530355"/>
<path d="M29.7587 69.9882V61.3328H32.2535V63.3694H32.3044V69.9882H29.7587ZM32.3044 65.4738L32.0837 63.4203C32.2874 62.6849 32.6212 62.1248 33.0851 61.7401C33.5489 61.3555 34.126 61.1631 34.8161 61.1631C35.0311 61.1631 35.1895 61.1857 35.2913 61.231V63.607C35.2348 63.5844 35.1556 63.573 35.0537 63.573C34.9519 63.5617 34.8274 63.5561 34.6804 63.5561C33.8657 63.5561 33.2661 63.7032 32.8814 63.9973C32.4967 64.2802 32.3044 64.7723 32.3044 65.4738Z" fill="white" fill-opacity="0.86"/>
<path d="M35.5565 63.999L35.1932 63.8535C35.1821 63.8491 35.1413 63.8379 35.0536 63.8379H35.0389L35.0243 63.8369C34.9354 63.8271 34.8215 63.8213 34.6805 63.8213C33.8882 63.8213 33.3591 63.9663 33.0428 64.208L33.0389 64.211C32.7499 64.4235 32.5692 64.8151 32.5692 65.4737V70.253H29.493V61.0674H32.5184V61.9414C32.6389 61.7922 32.7707 61.6565 32.9159 61.5362C33.4342 61.1064 34.0738 60.8975 34.8163 60.8975C35.0402 60.8975 35.2449 60.9197 35.3993 60.9883L35.5565 61.0586V63.999Z" stroke="#323232" stroke-opacity="0.18" stroke-width="0.530355"/>
<path d="M18.8654 69.9882V67.9516H21.9542C22.8367 67.9516 23.5835 67.7763 24.1945 67.4255C24.8167 67.0635 25.2863 66.5713 25.6031 65.949C25.9312 65.3267 26.0952 64.6139 26.0952 63.8106C26.0952 63.0186 25.9368 62.3228 25.62 61.7232C25.3032 61.1235 24.8337 60.654 24.2114 60.3145C23.6005 59.9751 22.8481 59.8054 21.9542 59.8054H18.9164V57.7688H21.9542C23.3233 57.7688 24.5169 58.0177 25.5352 58.5156C26.5535 59.0021 27.3398 59.7036 27.8942 60.62C28.4599 61.5252 28.7428 62.6 28.7428 63.8446C28.7428 65.0891 28.4599 66.1753 27.8942 67.1031C27.3285 68.0195 26.5365 68.7323 25.5182 69.2415C24.5113 69.7393 23.3289 69.9882 21.9712 69.9882H18.8654ZM17.2701 69.9882V57.7688H19.8837V69.9882H17.2701Z" fill="white" fill-opacity="0.86"/>
<path d="M21.9547 57.5032C23.3556 57.5033 24.5908 57.7588 25.652 58.2776H25.651C26.7113 58.7846 27.5366 59.5187 28.1188 60.4798L28.2272 60.6604C28.7506 61.5747 29.0084 62.6395 29.0084 63.845C29.0084 65.1309 28.7152 66.2665 28.1207 67.2415L28.1198 67.2425C27.5266 68.2032 26.6961 68.9489 25.6364 69.4788H25.6354C24.5851 69.998 23.3613 70.2532 21.9713 70.2532H17.0045V57.5032H21.9547ZM20.149 67.6868H21.9547C22.6964 67.6868 23.3237 67.5572 23.8453 67.3089L24.0621 67.1956C24.6412 66.8584 25.0741 66.4034 25.3668 65.8284L25.3688 65.8255C25.6741 65.2465 25.8297 64.5771 25.8297 63.8108C25.8297 63.0547 25.6789 62.4025 25.3854 61.847C25.0941 61.2956 24.6632 60.8628 24.0846 60.5472L24.0826 60.5462C23.5207 60.234 22.8155 60.0707 21.9547 60.0706H20.149V67.6868Z" stroke="#323232" stroke-opacity="0.18" stroke-width="0.530355"/>
</g>
<path d="M113.434 36.9401L113.434 34.0186L118.659 34.0186C120.195 34.0186 121.506 33.7096 122.592 33.0916C123.678 32.4736 124.502 31.6121 125.064 30.5072C125.644 29.4023 125.935 28.1382 125.935 26.7149C125.935 25.3103 125.644 24.0743 125.064 23.0068C124.502 21.9393 123.678 21.1153 122.592 20.5348C121.524 19.9355 120.213 19.6358 118.659 19.6358L113.49 19.6358L113.49 16.7143L118.659 16.7143C120.869 16.7143 122.798 17.1263 124.446 17.9503C126.094 18.7744 127.367 19.9448 128.266 21.4618C129.184 22.96 129.643 24.7297 129.643 26.771C129.643 28.8124 129.184 30.6008 128.266 32.1365C127.349 33.6534 126.066 34.8333 124.418 35.676C122.788 36.5188 120.878 36.9401 118.687 36.9401L113.434 36.9401ZM111.215 36.9401L111.215 16.7143L114.867 16.7143L114.867 36.9401L111.215 36.9401ZM132.561 36.9401L132.561 22.6135L136.016 22.6135L136.016 26.0688L136.1 26.0688L136.1 36.9401L132.561 36.9401ZM136.1 29.4678L135.735 26.0688C136.072 24.8515 136.644 23.9244 137.449 23.2877C138.254 22.651 139.219 22.3326 140.342 22.3326C140.736 22.3326 141.016 22.3701 141.185 22.445L141.185 25.7878C141.091 25.7504 140.96 25.7317 140.792 25.7317C140.623 25.7129 140.417 25.7036 140.174 25.7036C138.807 25.7036 137.786 26.0032 137.112 26.6025C136.438 27.2018 136.1 28.1569 136.1 29.4678ZM151.946 36.9401C151.852 36.5656 151.777 36.1536 151.721 35.7041C151.684 35.2546 151.665 34.7115 151.665 34.0748L151.553 34.0748L151.553 27.2767C151.553 26.5276 151.337 25.9658 150.907 25.5912C150.495 25.1979 149.858 25.0013 148.996 25.0013C148.154 25.0013 147.479 25.1605 146.974 25.4788C146.487 25.7785 146.187 26.2186 146.075 26.7991L142.676 26.7991C142.826 25.4695 143.462 24.3926 144.586 23.5686C145.71 22.7446 147.217 22.3326 149.109 22.3326C151.075 22.3326 152.564 22.7821 153.575 23.681C154.587 24.5612 155.092 25.8628 155.092 27.5857L155.092 34.0748C155.092 34.5243 155.12 34.9831 155.176 35.4513C155.251 35.9195 155.354 36.4158 155.485 36.9401L151.946 36.9401ZM146.974 37.221C145.532 37.221 144.38 36.8652 143.519 36.1536C142.676 35.4232 142.254 34.4494 142.254 33.2321C142.254 31.9211 142.732 30.8818 143.687 30.1139C144.642 29.3461 145.991 28.8311 147.732 28.5689L152.199 27.8947L152.199 30.142L148.322 30.7319C147.479 30.863 146.843 31.0971 146.412 31.4342C146 31.7713 145.794 32.2395 145.794 32.8388C145.794 33.3819 145.991 33.8033 146.384 34.1029C146.777 34.3838 147.32 34.5243 148.013 34.5243C149.024 34.5243 149.867 34.2714 150.541 33.7658C151.216 33.2602 151.553 32.6421 151.553 31.9118L151.946 34.0748C151.571 35.1048 150.953 35.8914 150.092 36.4345C149.249 36.9589 148.21 37.221 146.974 37.221ZM160.804 36.9401L156.421 22.6135L160.13 22.6135L162.714 33.3725L162.461 33.3725L165.635 22.6135L168.866 22.6135L172.096 33.3725L171.816 33.3725L174.372 22.6135L177.996 22.6135L173.613 36.9401L170.299 36.9401L167.068 26.2935L167.349 26.2935L164.119 36.9401L160.804 36.9401ZM186.81 37.221C185.049 37.221 183.748 36.809 182.905 35.985C182.081 35.1423 181.669 33.8875 181.669 32.2208L181.669 19.3549L185.236 18.0346L185.236 32.305C185.236 32.998 185.424 33.513 185.798 33.8501C186.173 34.1872 186.763 34.3557 187.568 34.3557C187.886 34.3557 188.167 34.337 188.411 34.2995C188.673 34.2434 188.916 34.1778 189.141 34.1029L189.141 36.8559C188.916 36.9682 188.598 37.0525 188.186 37.1087C187.774 37.1836 187.315 37.221 186.81 37.221ZM178.916 25.3946L178.916 22.6135L189.141 22.6135L189.141 25.3946L178.916 25.3946ZM191.706 36.9401L191.706 22.6135L195.246 22.6135L195.246 36.9401L191.706 36.9401ZM191.538 20.2538L191.538 16.3491L195.386 16.3491L195.386 20.2538L191.538 20.2538ZM199.004 36.9401L199.004 22.6135L202.459 22.6135L202.459 26.0688L202.543 26.0688L202.543 36.9401L199.004 36.9401ZM202.543 29.4678L202.178 26.0688C202.515 24.8515 203.086 23.9244 203.892 23.2877C204.697 22.651 205.661 22.3326 206.785 22.3326C207.178 22.3326 207.459 22.3701 207.628 22.445L207.628 25.7878C207.534 25.7504 207.403 25.7317 207.234 25.7317C207.066 25.7129 206.86 25.7036 206.616 25.7036C205.249 25.7036 204.229 26.0032 203.554 26.6025C202.88 27.2018 202.543 28.1569 202.543 29.4678ZM209.205 24.1585L209.205 22.4169C210.048 22.3045 210.61 22.0236 210.891 21.5741C211.172 21.1059 211.312 20.4505 211.312 19.6077L212.689 19.8886L209.262 19.8886L209.262 16.1244L213.363 16.1244L213.363 18.9335C213.363 20.2819 213.026 21.4337 212.352 22.3888C211.696 23.3439 210.647 23.9338 209.205 24.1585ZM220.173 37.221C218.188 37.221 216.606 36.809 215.426 35.985C214.246 35.1423 213.6 33.9812 213.487 32.5017L216.718 32.5017C216.812 33.2321 217.158 33.7845 217.757 34.1591C218.357 34.5336 219.162 34.7209 220.173 34.7209C221.091 34.7209 221.774 34.5805 222.224 34.2995C222.692 33.9999 222.926 33.5785 222.926 33.0354C222.926 32.6421 222.795 32.3238 222.533 32.0803C222.271 31.8181 221.774 31.6028 221.044 31.4342L218.741 30.9005C217.167 30.5634 215.997 30.039 215.229 29.3274C214.48 28.597 214.105 27.6887 214.105 26.6025C214.105 25.2728 214.611 24.2335 215.622 23.4843C216.652 22.7165 218.066 22.3326 219.864 22.3326C221.643 22.3326 223.067 22.7165 224.134 23.4843C225.22 24.2335 225.82 25.2728 225.932 26.6025L222.701 26.6025C222.608 26.0219 222.308 25.5818 221.802 25.2822C221.316 24.9826 220.641 24.8327 219.78 24.8327C218.975 24.8327 218.366 24.9638 217.954 25.226C217.542 25.4695 217.336 25.8347 217.336 26.3216C217.336 26.6961 217.495 27.0145 217.813 27.2767C218.132 27.5201 218.666 27.7355 219.415 27.9228L221.887 28.4846C223.291 28.803 224.349 29.3555 225.061 30.142C225.791 30.9286 226.157 31.8556 226.157 32.9231C226.157 34.2902 225.632 35.3483 224.584 36.0974C223.535 36.8465 222.065 37.221 220.173 37.221ZM241.705 37.193C239.158 37.193 237.126 36.6124 235.609 35.4513C234.111 34.2714 233.231 32.6141 232.969 30.4791L236.48 30.4791C236.649 31.7151 237.201 32.6796 238.138 33.3725C239.074 34.0467 240.301 34.3838 241.818 34.3838C243.072 34.3838 244.027 34.1591 244.683 33.7096C245.357 33.2414 245.694 32.5953 245.694 31.7713C245.694 31.0409 245.488 30.451 245.076 30.0016C244.664 29.5521 243.971 29.1869 242.997 28.906L239.346 27.8104C237.492 27.2486 236.124 26.5089 235.244 25.5912C234.383 24.6736 233.952 23.5218 233.952 22.136C233.952 20.9749 234.252 19.9636 234.851 19.1021C235.45 18.2406 236.293 17.5758 237.379 17.1076C238.484 16.6394 239.767 16.4053 241.228 16.4053C243.475 16.4053 245.263 16.9578 246.593 18.0627C247.942 19.1489 248.709 20.6284 248.897 22.5012L245.385 22.5012C245.179 21.3775 244.711 20.5535 243.981 20.0291C243.25 19.486 242.267 19.2145 241.031 19.2145C239.945 19.2145 239.083 19.4298 238.447 19.8606C237.81 20.2913 237.492 20.8812 237.492 21.6303C237.492 22.2483 237.679 22.7727 238.053 23.2034C238.447 23.6342 239.168 24.0087 240.216 24.3271L243.924 25.4507C245.778 25.9938 247.127 26.7336 247.97 27.67C248.812 28.6063 249.234 29.7956 249.234 31.2376C249.234 33.1478 248.569 34.6179 247.239 35.6479C245.928 36.6779 244.084 37.193 241.705 37.193ZM253.973 36.9401L253.973 34.0186L259.198 34.0186C260.734 34.0186 262.045 33.7096 263.131 33.0916C264.217 32.4736 265.041 31.6121 265.603 30.5072C266.184 29.4023 266.474 28.1382 266.474 26.7149C266.474 25.3103 266.184 24.0743 265.603 23.0068C265.041 21.9393 264.217 21.1153 263.131 20.5348C262.064 19.9355 260.753 19.6358 259.198 19.6358L254.029 19.6358L254.029 16.7143L259.198 16.7143C261.408 16.7143 263.337 17.1263 264.985 17.9503C266.633 18.7744 267.907 19.9448 268.806 21.4618C269.723 22.96 270.182 24.7297 270.182 26.771C270.182 28.8124 269.723 30.6008 268.806 32.1365C267.888 33.6534 266.605 34.8333 264.957 35.676C263.328 36.5188 261.417 36.9401 259.226 36.9401L253.973 36.9401ZM251.754 36.9401L251.754 16.7143L255.406 16.7143L255.406 36.9401L251.754 36.9401ZM272.96 36.9401L272.96 16.7143L276.612 16.7143L276.612 36.9401L272.96 36.9401ZM275.6 26.4339L285.18 16.7143L290.096 16.7143L280.123 26.4339L275.6 26.4339ZM285.629 36.9401L275.544 26.4339L280.123 26.4339L290.657 36.9401L285.629 36.9401ZM298.39 36.9401L298.39 16.7143L302.042 16.7143L302.042 36.9401L298.39 36.9401ZM300.132 36.9401L300.132 34.0467L312.942 34.0467L312.942 36.9401L300.132 36.9401ZM300.132 27.9509L300.132 25.1136L311.958 25.1136L311.958 27.9509L300.132 27.9509ZM300.132 19.6077L300.132 16.7143L312.633 16.7143L312.633 19.6077L300.132 19.6077ZM316.225 36.9401L316.225 22.6135L319.68 22.6135L319.68 25.9845L319.764 25.9845L319.764 36.9401L316.225 36.9401ZM325.86 36.9401L325.86 27.6981C325.86 26.8553 325.645 26.2373 325.214 25.844C324.802 25.432 324.212 25.226 323.444 25.226C322.77 25.226 322.152 25.3852 321.59 25.7036C321.029 26.0219 320.579 26.4714 320.242 27.052C319.924 27.6325 319.764 28.3067 319.764 29.0745L319.399 25.7878C319.886 24.7391 320.588 23.9057 321.506 23.2877C322.424 22.651 323.491 22.3326 324.709 22.3326C326.169 22.3326 327.321 22.754 328.164 23.5967C329.006 24.4207 329.428 25.4882 329.428 26.7991L329.428 36.9401L325.86 36.9401ZM335.496 36.9401L335.496 27.6981C335.496 26.8553 335.29 26.2373 334.878 25.844C334.466 25.432 333.876 25.226 333.108 25.226C332.415 25.226 331.788 25.3852 331.226 25.7036C330.664 26.0219 330.224 26.4714 329.905 27.052C329.587 27.6325 329.428 28.3067 329.428 29.0745L328.81 25.7878C329.278 24.7391 329.99 23.9057 330.945 23.2877C331.9 22.651 333.005 22.3326 334.26 22.3326C335.758 22.3326 336.928 22.7633 337.771 23.6248C338.632 24.4675 339.063 25.5912 339.063 26.9958L339.063 36.9401L335.496 36.9401ZM350.845 37.221C349.478 37.221 348.354 36.9027 347.474 36.2659C346.612 35.6105 346.079 34.7115 345.873 33.5692L346.126 33.5411L346.126 36.9401L342.67 36.9401L342.67 16.7143L346.21 16.7143L346.21 25.844L345.957 25.7878C346.2 24.7204 346.772 23.8776 347.671 23.2596C348.588 22.6416 349.721 22.3326 351.07 22.3326C352.343 22.3326 353.448 22.6416 354.384 23.2596C355.34 23.8589 356.079 24.711 356.604 25.8159C357.128 26.9209 357.39 28.2224 357.39 29.7206C357.39 31.2376 357.119 32.5579 356.576 33.6815C356.032 34.8052 355.274 35.676 354.3 36.294C353.326 36.912 352.175 37.221 350.845 37.221ZM349.946 34.2995C351.088 34.2995 351.997 33.9063 352.671 33.1197C353.345 32.3144 353.682 31.1908 353.682 29.7487C353.682 28.3067 353.336 27.1924 352.643 26.4059C351.969 25.6193 351.06 25.226 349.918 25.226C348.794 25.226 347.886 25.6287 347.193 26.4339C346.5 27.2205 346.154 28.3348 346.154 29.7768C346.154 31.2188 346.5 32.3331 347.193 33.1197C347.886 33.9063 348.804 34.2995 349.946 34.2995ZM366.743 37.221C365.226 37.221 363.896 36.9027 362.754 36.2659C361.63 35.6292 360.75 34.749 360.113 33.6253C359.495 32.5017 359.186 31.2095 359.186 29.7487C359.186 28.288 359.495 27.0051 360.113 25.9002C360.75 24.7766 361.63 23.9057 362.754 23.2877C363.877 22.651 365.188 22.3326 366.686 22.3326C368.11 22.3326 369.346 22.6322 370.395 23.2315C371.443 23.8121 372.258 24.6361 372.839 25.7036C373.419 26.771 373.709 28.0164 373.709 29.4397C373.709 29.7019 373.7 29.9454 373.681 30.1701C373.663 30.3948 373.634 30.6196 373.597 30.8443L361.377 30.8443L361.377 28.3723L370.872 28.3723L370.142 29.0464C370.142 27.6981 369.833 26.6868 369.215 26.0126C368.597 25.3384 367.735 25.0013 366.63 25.0013C365.432 25.0013 364.477 25.4133 363.765 26.2373C363.072 27.0613 362.726 28.2505 362.726 29.8049C362.726 31.3406 363.072 32.5204 363.765 33.3444C364.477 34.1497 365.479 34.5524 366.771 34.5524C367.52 34.5524 368.175 34.4119 368.737 34.131C369.299 33.8501 369.711 33.4193 369.973 32.8388L373.316 32.8388C372.848 34.1872 372.052 35.2546 370.928 36.0412C369.823 36.8278 368.428 37.221 366.743 37.221ZM386.72 36.9401L386.72 33.7096L387.001 33.7658C386.758 34.8145 386.168 35.6573 385.232 36.294C384.295 36.912 383.181 37.221 381.889 37.221C380.578 37.221 379.435 36.9214 378.462 36.3221C377.507 35.7041 376.767 34.8426 376.242 33.7377C375.718 32.6328 375.456 31.3312 375.456 29.833C375.456 28.3161 375.727 26.9958 376.27 25.8721C376.814 24.7485 377.572 23.8776 378.546 23.2596C379.538 22.6416 380.69 22.3326 382.001 22.3326C383.35 22.3326 384.464 22.6603 385.344 23.3158C386.224 23.9525 386.767 24.8421 386.973 25.9845L386.608 26.0126L386.608 16.7143L390.176 16.7143L390.176 36.9401L386.72 36.9401ZM382.928 34.3276C384.071 34.3276 384.979 33.9343 385.653 33.1478C386.346 32.3425 386.692 31.2188 386.692 29.7768C386.692 28.3348 386.346 27.2205 385.653 26.4339C384.96 25.6474 384.042 25.2541 382.9 25.2541C381.776 25.2541 380.868 25.6567 380.175 26.462C379.482 27.2486 379.136 28.3629 379.136 29.8049C379.136 31.2469 379.482 32.3612 380.175 33.1478C380.868 33.9343 381.786 34.3276 382.928 34.3276ZM120.133 69.2001C118.226 69.2001 116.571 68.8101 115.167 68.0301C113.763 67.2501 112.68 66.1581 111.917 64.7541C111.154 63.3328 110.773 61.6601 110.773 59.7361C110.773 57.8121 111.146 56.1221 111.891 54.6661C112.654 53.1928 113.702 52.0401 115.037 51.2081C116.389 50.3761 117.94 49.9601 119.691 49.9601C121.06 49.9601 122.3 50.2201 123.409 50.7401C124.536 51.2601 125.454 51.9795 126.165 52.8981C126.893 53.8168 127.335 54.8828 127.491 56.0961L125.359 56.0961C125.186 54.8135 124.588 53.7908 123.565 53.0281C122.56 52.2655 121.294 51.8841 119.769 51.8841C118.4 51.8841 117.204 52.2135 116.181 52.8721C115.158 53.5135 114.361 54.4148 113.789 55.5761C113.234 56.7375 112.957 58.1068 112.957 59.6841C112.957 61.2615 113.243 62.6221 113.815 63.7661C114.404 64.8928 115.245 65.7595 116.337 66.3661C117.446 66.9728 118.772 67.2761 120.315 67.2761C121.372 67.2761 122.317 67.1288 123.149 66.8341C123.981 66.5221 124.735 66.0455 125.411 65.4041L127.543 66.1841C126.59 67.1895 125.489 67.9435 124.241 68.4461C123.01 68.9488 121.641 69.2001 120.133 69.2001ZM125.411 66.1841L125.411 60.1261L126.217 60.9321L120.289 60.9321L120.289 59.0601L127.543 59.0601L127.543 66.1841L125.411 66.1841ZM131.07 68.9401L131.07 50.2201L138.506 50.2201C139.841 50.2201 140.976 50.4368 141.912 50.8701C142.848 51.3035 143.559 51.9275 144.044 52.7421C144.547 53.5568 144.798 54.5361 144.798 55.6801C144.798 56.8241 144.547 57.8121 144.044 58.6441C143.559 59.4588 142.848 60.0915 141.912 60.5421C140.976 60.9928 139.841 61.2181 138.506 61.2181L132.63 61.2181L132.63 59.3461L138.428 59.3461C139.815 59.3461 140.863 59.0341 141.574 58.4101C142.302 57.7688 142.666 56.8588 142.666 55.6801C142.666 54.5015 142.311 53.6088 141.6 53.0021C140.889 52.3955 139.832 52.0921 138.428 52.0921L133.202 52.0921L133.202 68.9401L131.07 68.9401ZM147.612 68.9401L147.612 50.2201L149.744 50.2201L149.744 68.9401L147.612 68.9401ZM148.704 68.9401L148.704 67.0681L159.364 67.0681L159.364 68.9401L148.704 68.9401ZM158.768 62.8561L158.768 60.8801L167.764 60.8801L167.764 62.8561L158.768 62.8561ZM171.557 68.9401L171.557 50.2201L173.689 50.2201L173.689 68.9401L171.557 68.9401ZM172.649 60.9061L172.649 59.0341L182.737 59.0341L182.737 60.9061L172.649 60.9061ZM172.649 52.0921L172.649 50.2201L183.465 50.2201L183.465 52.0921L172.649 52.0921ZM193.314 68.9401C193.244 68.6455 193.192 68.3075 193.158 67.9261C193.14 67.5448 193.132 67.0595 193.132 66.4701L193.002 66.4701L193.002 60.1261C193.002 59.1208 192.768 58.3841 192.3 57.9161C191.849 57.4308 191.112 57.1881 190.09 57.1881C189.084 57.1881 188.278 57.3961 187.672 57.8121C187.082 58.2108 186.753 58.7828 186.684 59.5281L184.682 59.5281C184.768 58.2455 185.306 57.2401 186.294 56.5121C187.282 55.7841 188.573 55.4201 190.168 55.4201C191.814 55.4201 193.036 55.8101 193.834 56.5901C194.631 57.3701 195.03 58.5401 195.03 60.1001L195.03 66.4701C195.03 66.8515 195.056 67.2501 195.108 67.6661C195.16 68.0648 195.229 68.4895 195.316 68.9401L193.314 68.9401ZM188.764 69.2001C187.394 69.2001 186.302 68.8708 185.488 68.2121C184.69 67.5361 184.292 66.6175 184.292 65.4561C184.292 64.2948 184.69 63.3935 185.488 62.7521C186.285 62.1108 187.446 61.6601 188.972 61.4001L193.6 60.6201L193.6 62.3361L189.284 63.0121C188.313 63.1681 187.576 63.4281 187.074 63.7921C186.571 64.1561 186.32 64.6848 186.32 65.3781C186.32 66.0541 186.545 66.5655 186.996 66.9121C187.464 67.2588 188.148 67.4321 189.05 67.4321C190.211 67.4321 191.156 67.1721 191.884 66.6521C192.629 66.1148 193.002 65.4215 193.002 64.5721L193.34 66.4181C193.062 67.3021 192.516 67.9868 191.702 68.4721C190.904 68.9575 189.925 69.2001 188.764 69.2001ZM198.519 68.9401L198.519 55.6801L200.599 55.6801L200.599 68.9401L198.519 68.9401ZM198.363 52.6641L198.363 50.2201L200.755 50.2201L200.755 52.6641L198.363 52.6641ZM204.245 68.9401L204.245 55.6801L206.195 55.6801L206.195 59.0601L206.325 59.0601L206.325 68.9401L204.245 68.9401ZM206.325 62.0241L205.987 58.8781C206.299 57.7515 206.854 56.8935 207.651 56.3041C208.448 55.7148 209.367 55.4201 210.407 55.4201C210.84 55.4201 211.135 55.4548 211.291 55.5241L211.291 57.5261C211.204 57.4915 211.083 57.4741 210.927 57.4741C210.771 57.4568 210.58 57.4481 210.355 57.4481C209.038 57.4481 208.032 57.8468 207.339 58.6441C206.663 59.4241 206.325 60.5508 206.325 62.0241ZM225.31 69.2001C223.057 69.2001 221.298 68.5155 220.032 67.1461C218.784 65.7595 218.16 63.8268 218.16 61.3481L218.16 50.2201L220.292 50.2201L220.292 61.4521C220.292 63.3241 220.726 64.7628 221.592 65.7681C222.459 66.7735 223.698 67.2761 225.31 67.2761C226.957 67.2761 228.214 66.7821 229.08 65.7941C229.947 64.7888 230.38 63.3415 230.38 61.4521L230.38 50.2201L232.512 50.2201L232.512 61.3741C232.512 63.8355 231.88 65.7595 230.614 67.1461C229.349 68.5155 227.581 69.2001 225.31 69.2001ZM240.292 69.2001C238.663 69.2001 237.363 68.8275 236.392 68.0821C235.422 67.3195 234.867 66.2448 234.728 64.8581L236.73 64.8581C236.852 65.7075 237.224 66.3575 237.848 66.8081C238.472 67.2588 239.304 67.4841 240.344 67.4841C241.263 67.4841 241.982 67.3108 242.502 66.9641C243.022 66.6175 243.282 66.1235 243.282 65.4821C243.282 65.0315 243.135 64.6415 242.84 64.3121C242.546 63.9655 241.956 63.6795 241.072 63.4541L238.94 62.9081C237.727 62.5961 236.817 62.1195 236.21 61.4781C235.604 60.8195 235.3 60.0395 235.3 59.1381C235.3 57.9941 235.725 57.0928 236.574 56.4341C237.424 55.7581 238.576 55.4201 240.032 55.4201C241.471 55.4201 242.641 55.7668 243.542 56.4601C244.444 57.1535 244.955 58.1155 245.076 59.3461L243.074 59.3461C242.953 58.6355 242.624 58.0895 242.086 57.7081C241.549 57.3268 240.838 57.1361 239.954 57.1361C239.105 57.1361 238.446 57.3008 237.978 57.6301C237.51 57.9421 237.276 58.3928 237.276 58.9821C237.276 59.4328 237.441 59.8228 237.77 60.1521C238.117 60.4815 238.689 60.7588 239.486 60.9841L241.566 61.5561C242.797 61.8855 243.724 62.3881 244.348 63.0641C244.972 63.7401 245.284 64.5548 245.284 65.5081C245.284 66.6695 244.842 67.5795 243.958 68.2381C243.074 68.8795 241.852 69.2001 240.292 69.2001ZM253.455 69.2001C252.189 69.2001 251.071 68.9055 250.101 68.3161C249.13 67.7095 248.367 66.8861 247.813 65.8461C247.258 64.8061 246.981 63.6101 246.981 62.2581C246.981 60.9061 247.249 59.7188 247.787 58.6961C248.341 57.6561 249.113 56.8501 250.101 56.2781C251.089 55.7061 252.224 55.4201 253.507 55.4201C254.737 55.4201 255.803 55.6888 256.705 56.2261C257.623 56.7635 258.325 57.5175 258.811 58.4881C259.313 59.4588 259.565 60.6028 259.565 61.9201C259.565 62.0935 259.556 62.2581 259.539 62.4141C259.539 62.5701 259.521 62.7435 259.487 62.9341L248.541 62.9341L248.541 61.1921L258.213 61.1921L257.537 62.1541C257.537 60.5595 257.181 59.3375 256.471 58.4881C255.777 57.6215 254.789 57.1881 253.507 57.1881C252.189 57.1881 251.123 57.6475 250.309 58.5661C249.511 59.4675 249.113 60.6895 249.113 62.2321C249.113 63.8095 249.511 65.0748 250.309 66.0281C251.123 66.9641 252.207 67.4321 253.559 67.4321C254.408 67.4321 255.153 67.2501 255.795 66.8861C256.436 66.5048 256.904 65.9675 257.199 65.2741L259.175 65.2741C258.741 66.4875 258.013 67.4495 256.991 68.1601C255.985 68.8535 254.807 69.2001 253.455 69.2001ZM274.999 69.2001C273.699 69.2001 272.503 68.9661 271.411 68.4981C270.337 68.0128 269.401 67.3368 268.603 66.4701C267.806 65.5861 267.182 64.5548 266.731 63.3761C266.298 62.1975 266.081 60.9061 266.081 59.5021C266.081 57.6475 266.463 56.0008 267.225 54.5621C267.988 53.1235 269.037 51.9968 270.371 51.1821C271.723 50.3675 273.257 49.9601 274.973 49.9601C276.724 49.9601 278.267 50.3675 279.601 51.1821C280.953 51.9968 282.011 53.1235 282.773 54.5621C283.536 56.0008 283.917 57.6561 283.917 59.5281C283.917 60.9321 283.692 62.2235 283.241 63.4021C282.808 64.5808 282.193 65.6035 281.395 66.4701C280.598 67.3368 279.653 68.0128 278.561 68.4981C277.469 68.9661 276.282 69.2001 274.999 69.2001ZM274.973 67.2761C276.308 67.2761 277.478 66.9468 278.483 66.2881C279.506 65.6121 280.303 64.6848 280.875 63.5061C281.447 62.3275 281.733 60.9841 281.733 59.4761C281.733 57.9855 281.447 56.6681 280.875 55.5241C280.321 54.3801 279.532 53.4875 278.509 52.8461C277.504 52.2048 276.325 51.8841 274.973 51.8841C273.621 51.8841 272.443 52.2048 271.437 52.8461C270.432 53.4875 269.652 54.3801 269.097 55.5241C268.543 56.6508 268.265 57.9681 268.265 59.4761C268.265 61.0015 268.543 62.3535 269.097 63.5321C269.669 64.6935 270.458 65.6121 271.463 66.2881C272.469 66.9468 273.639 67.2761 274.973 67.2761ZM293.23 69.1741C291.046 69.1741 289.304 68.6368 288.004 67.5621C286.721 66.4875 285.967 64.9535 285.742 62.9601L287.822 62.9601C288.013 64.3988 288.559 65.4821 289.46 66.2101C290.361 66.9381 291.609 67.3021 293.204 67.3021C294.556 67.3021 295.57 67.0508 296.246 66.5481C296.939 66.0281 297.286 65.2741 297.286 64.2861C297.286 63.4368 297.052 62.7608 296.584 62.2581C296.116 61.7555 295.388 61.3395 294.4 61.0101L291.254 59.9181C289.659 59.3635 288.481 58.6961 287.718 57.9161C286.955 57.1188 286.574 56.1135 286.574 54.9001C286.574 53.8948 286.825 53.0281 287.328 52.3001C287.831 51.5548 288.541 50.9741 289.46 50.5581C290.379 50.1421 291.445 49.9341 292.658 49.9341C294.53 49.9341 296.029 50.4281 297.156 51.4161C298.283 52.3868 298.933 53.7735 299.106 55.5761L297.026 55.5761C296.801 54.2761 296.333 53.3228 295.622 52.7161C294.929 52.1095 293.923 51.8061 292.606 51.8061C291.358 51.8061 290.387 52.0575 289.694 52.5601C289.001 53.0628 288.654 53.7735 288.654 54.6921C288.654 55.4721 288.897 56.0961 289.382 56.5641C289.867 57.0321 290.621 57.4395 291.644 57.7861L294.998 58.9561C296.454 59.4588 297.546 60.1435 298.274 61.0101C299.002 61.8595 299.366 62.9428 299.366 64.2601C299.366 65.8201 298.829 67.0335 297.754 67.9001C296.697 68.7495 295.189 69.1741 293.23 69.1741ZM306.87 68.9401L306.87 50.2201L309.002 50.2201L309.002 68.9401L306.87 68.9401ZM307.962 68.9401L307.962 67.0681L318.622 67.0681L318.622 68.9401L307.962 68.9401ZM320.768 68.9401L320.768 55.6801L322.848 55.6801L322.848 68.9401L320.768 68.9401ZM320.612 52.6641L320.612 50.2201L323.004 50.2201L323.004 52.6641L320.612 52.6641ZM331.695 69.2001C330.482 69.2001 329.398 68.9055 328.445 68.3161C327.509 67.7095 326.764 66.8861 326.209 65.8461C325.672 64.7888 325.403 63.5928 325.403 62.2581C325.403 60.9235 325.672 59.7448 326.209 58.7221C326.764 57.6995 327.509 56.8935 328.445 56.3041C329.398 55.7148 330.473 55.4201 331.669 55.4201C332.657 55.4201 333.541 55.6108 334.321 55.9921C335.118 56.3735 335.768 56.9195 336.271 57.6301C336.791 58.3235 337.12 59.1381 337.259 60.0741L335.335 60.0741C335.162 59.2248 334.763 58.5315 334.139 57.9941C333.515 57.4568 332.709 57.1881 331.721 57.1881C330.872 57.1881 330.135 57.3961 329.511 57.8121C328.887 58.2281 328.402 58.8175 328.055 59.5801C327.708 60.3428 327.535 61.2355 327.535 62.2581C327.535 63.2808 327.708 64.1821 328.055 64.9621C328.402 65.7421 328.887 66.3488 329.511 66.7821C330.152 67.2155 330.898 67.4321 331.747 67.4321C332.7 67.4321 333.498 67.1721 334.139 66.6521C334.78 66.1148 335.188 65.4215 335.361 64.5721L337.285 64.5721C337.129 65.4908 336.782 66.3055 336.245 67.0161C335.725 67.7095 335.075 68.2468 334.295 68.6281C333.515 69.0095 332.648 69.2001 331.695 69.2001ZM345.17 69.2001C343.904 69.2001 342.786 68.9055 341.816 68.3161C340.845 67.7095 340.082 66.8861 339.528 65.8461C338.973 64.8061 338.696 63.6101 338.696 62.2581C338.696 60.9061 338.964 59.7188 339.502 58.6961C340.056 57.6561 340.828 56.8501 341.816 56.2781C342.804 55.7061 343.939 55.4201 345.222 55.4201C346.452 55.4201 347.518 55.6888 348.42 56.2261C349.338 56.7635 350.04 57.5175 350.526 58.4881C351.028 59.4588 351.28 60.6028 351.28 61.9201C351.28 62.0935 351.271 62.2581 351.254 62.4141C351.254 62.5701 351.236 62.7435 351.202 62.9341L340.256 62.9341L340.256 61.1921L349.928 61.1921L349.252 62.1541C349.252 60.5595 348.896 59.3375 348.186 58.4881C347.492 57.6215 346.504 57.1881 345.222 57.1881C343.904 57.1881 342.838 57.6475 342.024 58.5661C341.226 59.4675 340.828 60.6895 340.828 62.2321C340.828 63.8095 341.226 65.0748 342.024 66.0281C342.838 66.9641 343.922 67.4321 345.274 67.4321C346.123 67.4321 346.868 67.2501 347.51 66.8861C348.151 66.5048 348.619 65.9675 348.914 65.2741L350.89 65.2741C350.456 66.4875 349.728 67.4495 348.706 68.1601C347.7 68.8535 346.522 69.2001 345.17 69.2001ZM353.891 68.9401L353.891 55.6801L355.841 55.6801L355.841 58.8001L355.971 58.8001L355.971 68.9401L353.891 68.9401ZM363.381 68.9401L363.381 60.2561C363.381 59.2508 363.13 58.4968 362.627 57.9941C362.125 57.4915 361.379 57.2401 360.391 57.2401C359.525 57.2401 358.753 57.4308 358.077 57.8121C357.419 58.1935 356.899 58.7221 356.517 59.3981C356.153 60.0741 355.971 60.8628 355.971 61.7641L355.633 58.6181C356.084 57.6301 356.769 56.8501 357.687 56.2781C358.623 55.7061 359.681 55.4201 360.859 55.4201C362.246 55.4201 363.355 55.8188 364.187 56.6161C365.037 57.3961 365.461 58.4275 365.461 59.7101L365.461 68.9401L363.381 68.9401ZM373.383 69.2001C371.754 69.2001 370.454 68.8275 369.483 68.0821C368.512 67.3195 367.958 66.2448 367.819 64.8581L369.821 64.8581C369.942 65.7075 370.315 66.3575 370.939 66.8081C371.563 67.2588 372.395 67.4841 373.435 67.4841C374.354 67.4841 375.073 67.3108 375.593 66.9641C376.113 66.6175 376.373 66.1235 376.373 65.4821C376.373 65.0315 376.226 64.6415 375.931 64.3121C375.636 63.9655 375.047 63.6795 374.163 63.4541L372.031 62.9081C370.818 62.5961 369.908 62.1195 369.301 61.4781C368.694 60.8195 368.391 60.0395 368.391 59.1381C368.391 57.9941 368.816 57.0928 369.665 56.4341C370.514 55.7581 371.667 55.4201 373.123 55.4201C374.562 55.4201 375.732 55.7668 376.633 56.4601C377.534 57.1535 378.046 58.1155 378.167 59.3461L376.165 59.3461C376.044 58.6355 375.714 58.0895 375.177 57.7081C374.64 57.3268 373.929 57.1361 373.045 57.1361C372.196 57.1361 371.537 57.3008 371.069 57.6301C370.601 57.9421 370.367 58.3928 370.367 58.9821C370.367 59.4328 370.532 59.8228 370.861 60.1521C371.208 60.4815 371.78 60.7588 372.577 60.9841L374.657 61.5561C375.888 61.8855 376.815 62.3881 377.439 63.0641C378.063 63.7401 378.375 64.5548 378.375 65.5081C378.375 66.6695 377.933 67.5795 377.049 68.2381C376.165 68.8795 374.943 69.2001 373.383 69.2001ZM386.545 69.2001C385.28 69.2001 384.162 68.9055 383.191 68.3161C382.22 67.7095 381.458 66.8861 380.903 65.8461C380.348 64.8061 380.071 63.6101 380.071 62.2581C380.071 60.9061 380.34 59.7188 380.877 58.6961C381.432 57.6561 382.203 56.8501 383.191 56.2781C384.179 55.7061 385.314 55.4201 386.597 55.4201C387.828 55.4201 388.894 55.6888 389.795 56.2261C390.714 56.7635 391.416 57.5175 391.901 58.4881C392.404 59.4588 392.655 60.6028 392.655 61.9201C392.655 62.0935 392.646 62.2581 392.629 62.4141C392.629 62.5701 392.612 62.7435 392.577 62.9341L381.631 62.9341L381.631 61.1921L391.303 61.1921L390.627 62.1541C390.627 60.5595 390.272 59.3375 389.561 58.4881C388.868 57.6215 387.88 57.1881 386.597 57.1881C385.28 57.1881 384.214 57.6475 383.399 58.5661C382.602 59.4675 382.203 60.6895 382.203 62.2321C382.203 63.8095 382.602 65.0748 383.399 66.0281C384.214 66.9641 385.297 67.4321 386.649 67.4321C387.498 67.4321 388.244 67.2501 388.885 66.8861C389.526 66.5048 389.994 65.9675 390.289 65.2741L392.265 65.2741C391.832 66.4875 391.104 67.4495 390.081 68.1601C389.076 68.8535 387.897 69.2001 386.545 69.2001Z" fill="white"/>
<defs>
<filter id="filter0_di_78_234" x="14.035" y="14.0358" width="38.1856" height="41.3677" filterUnits="userSpaceOnUse" color-interpolation-filters="sRGB">
<feFlood flood-opacity="0" result="BackgroundImageFix"/>
<feColorMatrix in="SourceAlpha" type="matrix" values="0 0 0 0 0 0 0 0 0 0 0 0 0 0 0 0 0 0 127 0" result="hardAlpha"/>
<feOffset dy="2.12142"/>
<feGaussianBlur stdDeviation="1.06071"/>
<feComposite in2="hardAlpha" operator="out"/>
<feColorMatrix type="matrix" values="0 0 0 0 0 0 0 0 0 0 0 0 0 0 0 0 0 0 0.25 0"/>
<feBlend mode="normal" in2="BackgroundImageFix" result="effect1_dropShadow_78_234"/>
<feBlend mode="normal" in="SourceGraphic" in2="effect1_dropShadow_78_234" result="shape"/>
<feColorMatrix in="SourceAlpha" type="matrix" values="0 0 0 0 0 0 0 0 0 0 0 0 0 0 0 0 0 0 127 0" result="hardAlpha"/>
<feOffset dy="2.12142"/>
<feGaussianBlur stdDeviation="7.39845"/>
<feComposite in2="hardAlpha" operator="arithmetic" k2="-1" k3="1"/>
<feColorMatrix type="matrix" values="0 0 0 0 0.559301 0 0 0 0 0.688433 0 0 0 0 0.752999 0 0 0 0.6 0"/>
<feBlend mode="normal" in2="shape" result="effect2_innerShadow_78_234"/>
</filter>
<linearGradient id="paint0_linear_78_234" x1="0" y1="42.9401" x2="404" y2="42.9401" gradientUnits="userSpaceOnUse">
<stop stop-color="#D9D9D9"/>
<stop offset="1" stop-color="#737373"/>
</linearGradient>
<linearGradient id="paint1_linear_78_234" x1="22.7858" y1="15.3617" x2="44" y2="77.4132" gradientUnits="userSpaceOnUse">
<stop stop-color="#0A1022"/>
<stop offset="1" stop-color="#060319"/>
</linearGradient>
<linearGradient id="paint2_linear_78_234" x1="22.3881" y1="16.0717" x2="42.7555" y2="48.3407" gradientUnits="userSpaceOnUse">
<stop stop-color="#B2B4D3" stop-opacity="0.88"/>
<stop offset="1" stop-color="white" stop-opacity="0.8"/>
</linearGradient>
<clipPath id="clip0_78_234">
<rect x="9.52698" y="8.46708" width="68.9461" height="68.9461" rx="6.36426" fill="white"/>
</clipPath>
</defs>
</svg>
