<svg width="211" height="34" viewBox="0 0 211 34" fill="none" xmlns="http://www.w3.org/2000/svg">
<g clip-path="url(#clip0_55_2305)">
<path d="M138.038 28.059L138.038 16.6109L141.338 16.6109L141.338 19.3046L141.405 19.3046L141.405 28.059L138.038 28.059ZM141.405 22.088L141.113 19.3719C141.383 18.3992 141.824 17.6584 142.438 17.1496C143.051 16.6408 143.815 16.3864 144.727 16.3864C145.012 16.3864 145.221 16.4163 145.356 16.4762L145.356 19.6188C145.281 19.5889 145.176 19.5739 145.042 19.5739C144.907 19.559 144.742 19.5515 144.548 19.5515C143.47 19.5515 142.677 19.746 142.168 20.1351C141.66 20.5092 141.405 21.1602 141.405 22.088Z" fill="white"/>
<path d="M133.11 28.0592L133.11 16.611L136.477 16.611L136.477 28.0592L133.11 28.0592Z" fill="white"/>
<path d="M130.326 28.3061C128.86 28.3061 127.767 27.9545 127.049 27.2511C126.346 26.5328 125.994 25.4479 125.994 23.9963L125.994 14.0521L129.361 12.9774L129.361 24.1085C129.361 24.6173 129.503 24.9989 129.788 25.2533C130.072 25.5077 130.513 25.6349 131.112 25.6349C131.337 25.6349 131.546 25.6125 131.741 25.5676C131.935 25.5227 132.13 25.4703 132.324 25.4104L132.324 27.9694C132.13 28.0742 131.853 28.1565 131.494 28.2164C131.15 28.2762 130.76 28.3061 130.326 28.3061ZM123.862 19.1701L123.862 16.6111L132.324 16.6111L132.324 19.1701L123.862 19.1701Z" fill="white"/>
<path d="M112.601 28.059L112.615 18.5891L115.9 17.5369L115.9 19.3046L115.968 19.3046L115.968 28.059L112.601 28.059ZM120.57 28.059L120.57 20.9657C120.57 20.3372 120.405 19.8658 120.076 19.5515C119.761 19.2372 119.298 19.0801 118.684 19.0801C118.16 19.0801 117.689 19.1998 117.27 19.4393C116.866 19.6787 116.544 20.0079 116.305 20.4269C116.08 20.846 115.968 21.3398 115.968 21.9085L115.676 19.1474C116.05 18.3094 116.596 17.6435 117.315 17.1496C118.048 16.6408 118.946 16.3864 120.008 16.3864C121.28 16.3864 122.253 16.7456 122.927 17.4639C123.6 18.1672 123.937 19.1175 123.937 20.3147L123.937 28.059L120.57 28.059Z" fill="white"/>
<path d="M87.2151 11.8972L94.577 11.8972C95.7443 11.8972 96.7619 12.0992 97.6298 12.5032C98.4978 12.8923 99.1712 13.446 99.6501 14.1643C100.129 14.8827 100.368 15.7207 100.368 16.6784C100.368 17.6212 100.129 18.4518 99.6501 19.1701C99.1712 19.8735 98.4978 20.4272 97.6298 20.8312C96.7619 21.2203 95.7443 21.4148 94.577 21.4148L91.3282 21.4148L89.3196 18.8783L94.4872 18.8783C95.3103 18.8783 95.9388 18.6912 96.3728 18.3171C96.8217 17.928 97.0462 17.3893 97.0462 16.7009C97.0462 15.9975 96.8292 15.4663 96.3952 15.1071C95.9612 14.733 95.3252 14.5459 94.4872 14.5459L88.6181 14.5459L87.2151 11.8972ZM96.4626 28.0593L89.9753 19.6639L93.6342 19.6639L101.132 28.0593L96.4626 28.0593Z" fill="white"/>
<path d="M110.871 18.9919C111.046 19.4803 111.135 20.033 111.135 20.6511L111.135 25.7018C111.135 26.076 111.157 26.4583 111.202 26.8474C111.262 27.2214 111.352 27.6254 111.472 28.0593L108.104 28.0593C108.015 27.73 107.947 27.3777 107.902 27.0036C107.882 26.7553 107.872 26.4805 107.865 26.1794C107.546 26.7985 107.119 27.2838 106.578 27.6325C105.905 28.0664 105.082 28.2838 104.109 28.2839C102.972 28.2839 102.066 27.999 101.393 27.4304C100.719 26.8468 100.383 26.0763 100.383 25.1188C100.383 24.0564 100.779 23.2028 101.572 22.5593C102.38 21.9008 103.503 21.4745 104.939 21.28L107.768 20.8806L107.768 20.2927C107.768 20.1342 107.748 19.9882 107.711 19.8542L110.871 18.9919ZM105.501 23.1882C104.903 23.2779 104.461 23.4421 104.177 23.6813C103.892 23.9208 103.75 24.2506 103.75 24.6696C103.75 25.0437 103.885 25.3276 104.154 25.5222C104.424 25.7167 104.783 25.8142 105.231 25.8142C105.935 25.8142 106.534 25.6276 107.027 25.2536C107.521 24.8645 107.768 24.4148 107.768 23.9059L107.768 22.8405L105.501 23.1882ZM106.062 16.3864C107.708 16.3864 108.965 16.7529 109.833 17.486C110.033 17.6553 110.209 17.8431 110.363 18.0466L107.454 19.3688C107.407 19.3143 107.355 19.2618 107.297 19.2145C106.998 18.9452 106.549 18.8103 105.95 18.8102C105.382 18.8102 104.924 18.9077 104.58 19.1022C104.251 19.2968 104.034 19.5817 103.93 19.9558L100.72 19.9558C100.869 18.9232 101.401 18.0696 102.313 17.3962C103.226 16.723 104.476 16.3865 106.062 16.3864Z" fill="white"/>
<path d="M137.489 18.2194L135.193 13.2385C134.51 11.8797 133.281 10.7437 131.52 11.3662L105.804 20.3429L130.86 9.66804C132.219 8.98497 132.986 7.50108 132.733 5.99547L131.785 0.0800955L134.431 5.33559C135.114 6.69433 136.598 7.46085 138.103 7.20784L144.019 6.26005L138.763 8.906C137.405 9.58908 136.788 11.4445 136.891 12.5786L137.489 18.2194Z" fill="white"/>
<path d="M154.249 28.0229C152.363 28.0229 150.859 27.559 149.737 26.6312C148.629 25.7033 147.978 24.3789 147.784 22.658L149.58 22.658C149.744 23.9001 150.216 24.8354 150.994 25.4639C151.772 26.0924 152.849 26.4067 154.226 26.4067C155.393 26.4067 156.269 26.1897 156.853 25.7557C157.451 25.3068 157.75 24.6558 157.75 23.8028C157.75 23.0695 157.548 22.4859 157.144 22.0519C156.74 21.6179 156.112 21.2588 155.259 20.9744L152.543 20.0316C151.166 19.5528 150.148 18.9766 149.49 18.3032C148.831 17.6148 148.502 16.7468 148.502 15.6993C148.502 14.8313 148.719 14.0831 149.153 13.4546C149.587 12.8111 150.201 12.3097 150.994 11.9506C151.787 11.5914 152.707 11.4119 153.755 11.4119C155.371 11.4119 156.665 11.8384 157.638 12.6914C158.611 13.5294 159.172 14.7266 159.322 16.2829L157.526 16.2829C157.331 15.1606 156.927 14.3375 156.314 13.8137C155.715 13.2899 154.847 13.0281 153.71 13.0281C152.632 13.0281 151.794 13.2451 151.196 13.679C150.597 14.113 150.298 14.7266 150.298 15.5197C150.298 16.1931 150.507 16.7319 150.926 17.1359C151.345 17.54 151.996 17.8917 152.879 18.191L155.775 19.2011C157.032 19.6351 157.975 20.2262 158.603 20.9744C159.232 21.7077 159.546 22.643 159.546 23.7803C159.546 25.1272 159.082 26.1747 158.154 26.923C157.242 27.6563 155.94 28.0229 154.249 28.0229ZM166.2 28.0229C164.928 28.0229 164 27.7386 163.416 27.1699C162.847 26.5863 162.563 25.7482 162.563 24.6558L162.563 13.7015L164.359 13.0281L164.359 24.6333C164.359 25.2768 164.523 25.7482 164.853 26.0475C165.182 26.3468 165.721 26.4965 166.469 26.4965C166.768 26.4965 167.023 26.4815 167.232 26.4516C167.457 26.4067 167.636 26.3543 167.771 26.2944L167.771 27.8209C167.621 27.8807 167.404 27.9256 167.12 27.9555C166.851 28.0004 166.544 28.0229 166.2 28.0229ZM160.206 17.8991L160.206 16.3727L167.771 16.3727L167.771 17.8991L160.206 17.8991ZM173.025 28.0453C172.277 28.0453 171.611 27.8957 171.027 27.5964C170.444 27.2821 169.987 26.8481 169.658 26.2944C169.329 25.7258 169.164 25.0748 169.164 24.3415L169.164 16.3727L170.96 16.3727L170.96 23.8701C170.96 24.7381 171.169 25.3891 171.589 25.8231C172.022 26.257 172.636 26.474 173.429 26.474C174.148 26.474 174.784 26.3094 175.337 25.9802C175.891 25.651 176.325 25.1945 176.639 24.6109C176.968 24.0123 177.133 23.3314 177.133 22.5682L177.425 25.2843C177.051 26.1373 176.467 26.8107 175.674 27.3046C174.881 27.7984 173.998 28.0453 173.025 28.0453ZM177.245 27.8209L177.245 25.1272L177.133 25.1272L177.133 16.3727L178.929 16.3727L178.929 27.8209L177.245 27.8209ZM190.128 27.8209L190.128 25.1496L190.353 25.217C190.068 26.0849 189.544 26.7733 188.781 27.2821C188.033 27.7909 187.135 28.0453 186.088 28.0453C185.055 28.0453 184.15 27.7984 183.371 27.3046C182.608 26.8107 182.01 26.1223 181.576 25.2394C181.157 24.3565 180.947 23.3239 180.947 22.1417C180.947 20.9445 181.164 19.8969 181.598 18.9991C182.032 18.1012 182.638 17.4053 183.416 16.9115C184.195 16.4176 185.107 16.1707 186.155 16.1707C187.232 16.1707 188.138 16.4326 188.871 16.9563C189.604 17.4801 190.106 18.2209 190.375 19.1786L190.016 19.2235L190.016 11.6588L191.812 11.6588L191.812 27.8209L190.128 27.8209ZM186.424 26.474C187.577 26.474 188.474 26.0849 189.118 25.3068C189.776 24.5136 190.106 23.4361 190.106 22.0743C190.106 20.7425 189.776 19.6874 189.118 18.9093C188.46 18.1311 187.562 17.742 186.424 17.742C185.287 17.742 184.397 18.1311 183.753 18.9093C183.11 19.6874 182.788 20.7649 182.788 22.1417C182.788 23.4885 183.11 24.551 183.753 25.3292C184.397 26.0924 185.287 26.474 186.424 26.474ZM194.74 27.8209L194.74 16.3727L196.536 16.3727L196.536 27.8209L194.74 27.8209ZM194.605 13.7688L194.605 11.6588L196.67 11.6588L196.67 13.7688L194.605 13.7688ZM204.174 28.0453C203.052 28.0453 202.064 27.7835 201.211 27.2597C200.358 26.7359 199.692 26.0251 199.213 25.1272C198.749 24.2143 198.517 23.1892 198.517 22.0519C198.517 20.8996 198.757 19.882 199.236 18.9991C199.714 18.1161 200.373 17.4203 201.211 16.9115C202.064 16.4026 203.052 16.1482 204.174 16.1482C205.311 16.1482 206.299 16.4026 207.137 16.9115C207.99 17.4203 208.648 18.1161 209.112 18.9991C209.591 19.882 209.831 20.8996 209.831 22.0519C209.831 23.1892 209.591 24.2143 209.112 25.1272C208.648 26.0251 207.99 26.7359 207.137 27.2597C206.299 27.7835 205.311 28.0453 204.174 28.0453ZM204.174 26.5189C204.952 26.5189 205.626 26.3319 206.194 25.9577C206.763 25.5686 207.204 25.0374 207.519 24.364C207.833 23.6906 207.99 22.9124 207.99 22.0294C207.99 20.7125 207.638 19.6575 206.935 18.8644C206.247 18.0712 205.326 17.6747 204.174 17.6747C203.037 17.6747 202.116 18.0712 201.413 18.8644C200.71 19.6575 200.358 20.7125 200.358 22.0294C200.358 22.9124 200.515 23.6906 200.829 24.364C201.144 25.0374 201.585 25.5686 202.154 25.9577C202.737 26.3319 203.411 26.5189 204.174 26.5189Z" fill="white"/>
</g>
<path d="M1.93047 28.7958L1.93047 12.6337L4.75884 12.6337L10.5952 28.2122L9.74215 28.2122L15.5336 12.6337L18.4068 12.6337L18.4068 28.7958L16.5886 28.7958L16.5886 13.599L16.8355 13.599L11.2012 28.7958L9.00139 28.7958L3.3671 13.7337L3.61402 13.7337L3.61402 28.7958L1.93047 28.7958ZM28.4913 28.7958C28.4314 28.5414 28.3865 28.2496 28.3566 27.9204C28.3417 27.5912 28.3342 27.1721 28.3342 26.6633L28.2219 26.6633L28.2219 21.1862C28.2219 20.3182 28.0199 19.6822 27.6159 19.2782C27.2268 18.8591 26.5908 18.6496 25.7078 18.6496C24.8399 18.6496 24.144 18.8292 23.6202 19.1884C23.1114 19.5326 22.8271 20.0264 22.7672 20.6699L21.0388 20.6699C21.1136 19.5625 21.5775 18.6945 22.4305 18.066C23.2835 17.4375 24.3984 17.1232 25.7752 17.1232C27.1968 17.1232 28.2519 17.4599 28.9402 18.1333C29.6286 18.8068 29.9728 19.8169 29.9728 21.1637L29.9728 26.6633C29.9728 26.9926 29.9953 27.3368 30.0402 27.6959C30.0851 28.0401 30.1449 28.4068 30.2197 28.7958L28.4913 28.7958ZM24.563 29.0203C23.3808 29.0203 22.438 28.736 21.7346 28.1673C21.0463 27.5837 20.7021 26.7905 20.7021 25.7879C20.7021 24.7852 21.0463 24.0071 21.7346 23.4534C22.423 22.8997 23.4257 22.5106 24.7426 22.2861L28.7382 21.6127L28.7382 23.0942L25.012 23.6778C24.1739 23.8125 23.5379 24.037 23.1039 24.3513C22.67 24.6655 22.453 25.122 22.453 25.7206C22.453 26.3042 22.6475 26.7456 23.0366 27.0449C23.4406 27.3442 24.0318 27.4939 24.8099 27.4939C25.8126 27.4939 26.6282 27.2694 27.2567 26.8205C27.9002 26.3566 28.2219 25.758 28.2219 25.0247L28.5137 26.6184C28.2743 27.3817 27.8029 27.9728 27.0996 28.3918C26.4112 28.8108 25.5657 29.0203 24.563 29.0203ZM41.0888 28.7958L41.0888 26.1246L41.3133 26.1919C41.029 27.0599 40.5052 27.7483 39.742 28.2571C38.9937 28.7659 38.0958 29.0203 37.0483 29.0203C36.0157 29.0203 35.1103 28.7734 34.3322 28.2796C33.569 27.7857 32.9704 27.0973 32.5364 26.2144C32.1174 25.3315 31.9079 24.2989 31.9079 23.1167C31.9079 21.9195 32.1248 20.8719 32.5588 19.974C32.9928 19.0761 33.5989 18.3803 34.3771 17.8864C35.1552 17.3926 36.0681 17.1457 37.1156 17.1457C38.1931 17.1457 39.0985 17.4076 39.8318 17.9313C40.5651 18.4551 41.0664 19.1959 41.3357 20.1536L40.9766 20.1985L40.9766 12.6337L42.7724 12.6337L42.7724 28.7958L41.0888 28.7958ZM37.385 27.449C38.5373 27.449 39.4352 27.0599 40.0787 26.2817C40.7371 25.4886 41.0664 24.4111 41.0664 23.0493C41.0664 21.7174 40.7371 20.6624 40.0787 19.8842C39.4202 19.1061 38.5223 18.717 37.385 18.717C36.2477 18.717 35.3573 19.1061 34.7138 19.8842C34.0703 20.6624 33.7485 21.7399 33.7485 23.1167C33.7485 24.4635 34.0703 25.526 34.7138 26.3042C35.3573 27.0674 36.2477 27.449 37.385 27.449ZM50.392 29.0203C49.2996 29.0203 48.3343 28.7659 47.4963 28.2571C46.6583 27.7333 45.9998 27.0225 45.5209 26.1246C45.0421 25.2267 44.8026 24.1941 44.8026 23.0269C44.8026 21.8596 45.0346 20.8345 45.4985 19.9516C45.9774 19.0537 46.6433 18.3578 47.4963 17.864C48.3493 17.3701 49.3295 17.1232 50.4369 17.1232C51.4994 17.1232 52.4198 17.3552 53.1979 17.8191C53.9911 18.283 54.5972 18.934 55.0162 19.772C55.4502 20.61 55.6671 21.5977 55.6671 22.7351C55.6671 22.8847 55.6597 23.0269 55.6447 23.1616C55.6447 23.2962 55.6297 23.4459 55.5998 23.6105L46.1495 23.6105L46.1495 22.1065L54.4999 22.1065L53.9163 22.9371C53.9163 21.5603 53.6095 20.5053 52.9959 19.772C52.3973 19.0238 51.5443 18.6496 50.4369 18.6496C49.2996 18.6496 48.3792 19.0462 47.6759 19.8393C46.9875 20.6175 46.6433 21.6725 46.6433 23.0044C46.6433 24.3662 46.9875 25.4587 47.6759 26.2817C48.3792 27.0898 49.3145 27.4939 50.4818 27.4939C51.2151 27.4939 51.8586 27.3368 52.4123 27.0225C52.966 26.6933 53.37 26.2294 53.6244 25.6308L55.3304 25.6308C54.9563 26.6783 54.3278 27.5089 53.4449 28.1224C52.5769 28.721 51.5593 29.0203 50.392 29.0203ZM67.1747 28.9979C66.0973 28.9979 65.1919 28.736 64.4586 28.2122C63.7253 27.6884 63.224 26.9477 62.9546 25.9899L63.2016 25.945L63.2016 28.7958L61.518 28.7958L61.518 12.6337L63.3138 12.6337L63.3138 20.0189L63.0669 19.9516C63.3512 19.0687 63.8675 18.3803 64.6157 17.8864C65.379 17.3776 66.2843 17.1232 67.3319 17.1232C68.3495 17.1232 69.2324 17.3701 69.9807 17.864C70.7439 18.3578 71.335 19.0462 71.754 19.9291C72.173 20.8121 72.3825 21.8446 72.3825 23.0269C72.3825 24.2241 72.1655 25.2716 71.7316 26.1695C71.2976 27.0674 70.6915 27.7633 69.9133 28.2571C69.1351 28.7509 68.2223 28.9979 67.1747 28.9979ZM66.9054 27.4266C68.0427 27.4266 68.9331 27.0375 69.5766 26.2593C70.2201 25.4661 70.5418 24.3887 70.5418 23.0269C70.5418 21.68 70.2201 20.625 69.5766 19.8618C68.9331 19.0836 68.0427 18.6945 66.9054 18.6945C65.768 18.6945 64.8702 19.0911 64.2117 19.8842C63.5532 20.6624 63.224 21.7324 63.224 23.0942C63.224 24.4261 63.5532 25.4811 64.2117 26.2593C64.8702 27.0375 65.768 27.4266 66.9054 27.4266ZM75.1165 33.3975L77.6755 27.449L78.0796 26.8205L81.8283 17.3477L83.669 17.3477L77.0246 33.3975L75.1165 33.3975ZM77.8776 28.9081L72.7371 17.3477L74.7125 17.3477L79.1346 27.6959L77.8776 28.9081Z" fill="white"/>
<defs>
<clipPath id="clip0_55_2305">
<rect width="123.46" height="28.7607" fill="white" transform="translate(87.2152 3.17475e-06)"/>
</clipPath>
</defs>
</svg>
